<svg xmlns="http://www.w3.org/2000/svg" viewBox="0 0 64 64" fill="none">
  <!-- Background circle -->
  <circle cx="32" cy="32" r="32" fill="#0ea5e9"/>

  <!-- Dog head -->
  <path d="M32 48c-8.837 0-16-6.268-16-14 0-3.5 1.5-6.7 4-9.2-1-1.5-1.5-3.2-1.5-5 0-2.5 1-4.8 2.8-6.5 1.8-1.7 4.2-2.5 6.7-2.3 1.5-1 3.3-1.5 5-1.5s3.5.5 5 1.5c2.5-.2 4.9.6 6.7 2.3 1.8 1.7 2.8 4 2.8 6.5 0 1.8-.5 3.5-1.5 5 2.5 2.5 4 5.7 4 9.2 0 7.732-7.163 14-16 14z" fill="white"/>

  <!-- Left ear -->
  <ellipse cx="20" cy="22" rx="4" ry="7" fill="white" transform="rotate(-25 20 22)"/>

  <!-- Right ear -->
  <ellipse cx="44" cy="22" rx="4" ry="7" fill="white" transform="rotate(25 44 22)"/>

  <!-- Left eye -->
  <circle cx="26" cy="30" r="2.5" fill="#1e293b"/>

  <!-- Right eye -->
  <circle cx="38" cy="30" r="2.5" fill="#1e293b"/>

  <!-- Nose -->
  <ellipse cx="32" cy="37" rx="3" ry="2.5" fill="#1e293b"/>

  <!-- Mouth -->
  <path d="M32 37 Q28 40 26 38 M32 37 Q36 40 38 38" stroke="#1e293b" stroke-width="1.5" stroke-linecap="round" fill="none"/>

  <!-- Tongue (optional cute detail) -->
  <path d="M31 40 Q32 43 33 40" stroke="#ef4444" stroke-width="2" stroke-linecap="round" fill="none"/>
</svg>
